<svg width="46" height="87" viewBox="0 0 46 87" fill="none" xmlns="http://www.w3.org/2000/svg">
<path d="M41.3564 50.7679C40.2508 48.1656 38.8735 45.6706 37.2625 43.3399C35.7462 41.1419 33.9899 39.0259 31.9492 37.2952C34.5837 36.3415 36.9656 34.9898 38.9809 33.3223C43.1254 29.8926 45.7347 25.0985 45.7284 19.7865C45.7284 14.4745 43.1254 9.68047 38.9809 6.25073C34.8365 2.81468 29.1378 0.711365 22.8642 0.711365C16.5906 0.711365 10.8919 2.81468 6.74744 6.25073C2.60295 9.68047 -0.00630637 14.4745 1.14472e-05 19.7865C1.14472e-05 25.0985 2.60295 29.8926 6.74744 33.3223C8.76282 34.9898 11.151 36.3415 13.7855 37.2952C11.7385 39.0259 9.98848 41.1419 8.4722 43.3336C6.86116 45.658 5.48388 48.1529 4.37826 50.7615C3.83493 52.0374 3.35477 53.3449 2.95043 54.6776C2.53346 56.023 1.97749 57.5452 2.35024 58.9664C2.65349 60.1223 3.67698 61.1518 4.94686 61.0508C6.09039 60.956 6.90539 59.9959 7.34131 59.0106C8.52906 56.3262 7.89728 52.7638 6.15988 50.4647C6.08407 50.3636 5.99562 50.2941 5.90085 50.2563C6.93066 47.9824 8.17527 45.8033 9.56518 43.7884C10.9109 41.843 12.4335 40.0618 13.994 38.2869C12.6041 42.5946 11.7701 47.155 11.2141 51.6206C11.0562 52.8901 10.9298 54.166 10.8224 55.4419C10.734 56.5094 10.6645 57.621 10.9235 58.6758C11.4163 60.6718 13.0147 61.8593 14.8911 62.4972C15.4471 62.6867 16.0094 62.8446 16.578 62.9772C16.4895 64.0826 16.5211 65.2258 16.5211 66.3312C16.5211 67.5439 16.5274 68.7566 16.5274 69.9694C16.5337 72.3948 16.5401 74.8266 16.5527 77.252C16.559 78.7237 16.5906 80.3154 16.1736 81.7492C14.8911 81.6355 13.5833 81.6734 12.3134 81.9008C11.2268 82.0966 9.8179 82.3682 9.34406 83.5178C8.9334 84.5094 9.50201 85.5832 10.3233 86.158C11.2141 86.7833 12.3703 86.8717 13.4001 86.5938C15.8072 85.9306 17.1023 83.7388 17.5762 81.4334C17.8478 80.1133 17.8478 78.7616 17.8478 77.4162C17.8478 75.9067 17.8415 74.4034 17.8352 72.8938C17.8289 71.22 17.8226 69.5462 17.8163 67.8723C17.8099 66.3375 17.8668 64.7521 17.7468 63.2109C21.0004 63.7541 24.4247 63.4888 27.5646 62.6172C27.5457 62.6677 27.5331 62.7246 27.5331 62.7814C27.3562 64.4552 27.4383 66.1922 27.432 67.8723C27.4257 69.5462 27.4193 71.22 27.413 72.8938C27.4067 74.4034 27.4004 75.9067 27.4004 77.4162C27.4004 78.7553 27.4004 80.1133 27.672 81.4334C28.1459 83.7451 29.4474 85.9369 31.8481 86.5938C32.8779 86.878 34.0341 86.7833 34.9249 86.158C35.7525 85.5832 36.3148 84.5094 35.9042 83.5178C35.4303 82.3745 34.0151 82.0966 32.9348 81.9008C31.6649 81.6734 30.3634 81.6355 29.0746 81.7492C28.6576 80.3154 28.6892 78.7237 28.6955 77.252C28.7082 74.8266 28.7145 72.3948 28.7208 69.9694C28.7208 68.7566 28.7271 67.5439 28.7271 66.3312C28.7271 65.1311 28.7777 63.8931 28.6513 62.6993C28.6324 62.5288 28.5629 62.4214 28.4681 62.3393C30.3824 61.7266 32.3725 60.8739 33.8572 59.5033C35.4998 57.9874 36.119 56.0356 36.0116 53.8313C35.8852 51.2037 35.1587 48.5193 34.4637 45.9928C33.7498 43.4094 32.8716 40.8703 31.8355 38.4006C33.3581 40.1376 34.8491 41.8809 36.1632 43.7884C37.5531 45.8033 38.804 47.9824 39.8275 50.2563C39.7391 50.3005 39.6506 50.3636 39.5685 50.4647C37.8311 52.7638 37.193 56.3262 38.3871 59.0106C38.823 59.9959 39.638 60.956 40.7815 61.0508C42.0451 61.1518 43.0749 60.1223 43.3781 58.9664C43.7509 57.5515 43.1949 56.0293 42.778 54.6776C42.3736 53.3575 41.8998 52.0501 41.3564 50.7679ZM6.34942 57.8421C6.15356 58.5937 5.58496 59.9265 4.59306 59.737C3.24737 59.4843 3.48113 57.5894 3.69593 56.6609C4.09396 54.9556 4.63729 53.2628 5.30698 51.6142C6.43155 53.4776 6.9117 55.7009 6.34942 57.8421ZM15.3902 83.442C14.5436 84.6547 12.3892 86.1643 10.9804 84.8694C9.9253 83.8967 11.53 83.4736 12.2945 83.3157C13.3938 83.0883 14.4994 83.0314 15.6113 83.1009C15.5418 83.2083 15.466 83.3283 15.3902 83.442ZM32.9601 83.3093C33.7245 83.4672 35.3292 83.8904 34.2742 84.8631C32.8653 86.1643 30.7109 84.6547 29.8643 83.4357C29.7885 83.322 29.7127 83.2083 29.6432 83.0882C30.7551 83.0251 31.8608 83.0819 32.9601 83.3093ZM1.50997 19.7992C1.50997 14.9988 3.85388 10.6342 7.71407 7.43188C11.5679 4.23585 16.9318 2.2399 22.8642 2.2399C28.7966 2.2399 34.1604 4.23585 38.0143 7.43188C41.8682 10.6279 44.2121 14.9925 44.2184 19.7992C44.2184 24.5995 41.8745 28.9641 38.0143 32.1664C34.1604 35.3625 28.8029 37.3584 22.8642 37.3584C16.9318 37.3584 11.5679 35.3625 7.71407 32.1664C3.85388 28.9641 1.50997 24.5995 1.50997 19.7992ZM33.7561 57.52C32.6631 59.0485 30.8625 59.9265 29.1567 60.596C25.2271 62.1372 20.8867 62.4467 16.7675 61.575C15.0743 61.215 13.0273 60.5897 12.3387 58.8148C11.9723 57.8674 12.0039 56.8062 12.067 55.8082C12.1365 54.6966 12.2503 53.5912 12.3766 52.4922C12.6672 49.9467 13.0779 47.4202 13.596 44.9064C14.0887 42.5125 14.7458 40.1755 15.3586 37.8132C17.7088 38.4953 20.2297 38.868 22.8579 38.868C25.2902 38.868 27.6278 38.5459 29.8264 37.9648C29.8391 37.9963 29.8517 38.0343 29.8706 38.0658C29.9022 38.1164 29.9401 38.1669 29.9781 38.2111C30.0223 38.2869 30.0728 38.369 30.117 38.4448C30.1676 38.5332 30.2244 38.628 30.2687 38.7227C30.3318 38.8617 30.395 38.9943 30.4772 39.127C30.5151 39.1901 30.5593 39.2596 30.5972 39.3228C32.2335 43.2389 33.4655 47.3065 34.2552 51.4816C34.6406 53.4776 35.0197 55.7514 33.7561 57.52ZM41.1416 59.737C40.1497 59.9201 39.5811 58.5874 39.3853 57.8421C38.823 55.7072 39.3032 53.4776 40.4277 51.6206C41.0974 53.2691 41.6407 54.9556 42.0388 56.6673C42.2536 57.5894 42.481 59.4906 41.1416 59.737Z" fill="#242647"/>
<path d="M12.5539 11.1458C12.2001 11.0826 11.8526 11.2532 11.6441 11.5374L11.5999 11.6132C11.5115 11.708 11.4356 11.809 11.3851 11.929C11.2587 12.2006 11.2145 12.5354 11.2019 12.8323C11.1956 13.0912 11.2145 13.3439 11.2524 13.5965C11.2524 13.7734 11.2524 13.9502 11.2587 14.1271C11.2714 14.3924 11.3535 14.6703 11.5178 14.8914C11.7389 15.1882 12.1369 15.3524 12.5034 15.2703C12.8824 15.1819 13.1857 14.9293 13.3436 14.5692C13.4447 14.3418 13.4637 14.0892 13.4763 13.8429C13.5079 13.6976 13.5268 13.5523 13.5395 13.407C13.5837 12.8891 13.5647 12.2575 13.3247 11.7838C13.1667 11.4616 12.914 11.209 12.5539 11.1458Z" fill="#242647"/>
<path d="M27.4321 14.1208C27.451 14.3861 27.5268 14.664 27.6911 14.885C27.9122 15.1819 28.3103 15.3461 28.6767 15.264C29.0558 15.1756 29.359 14.9229 29.517 14.5629C29.618 14.3355 29.637 14.0829 29.6496 13.8365C29.6812 13.6913 29.7002 13.546 29.7128 13.4007C29.757 12.8828 29.7381 12.2512 29.498 11.7774C29.3401 11.4616 29.0873 11.209 28.7272 11.1458C28.3734 11.0826 28.026 11.2532 27.8175 11.5374L27.7732 11.6132C27.6848 11.708 27.609 11.809 27.5584 11.929C27.4321 12.2006 27.3879 12.5354 27.3752 12.8323C27.3689 13.0912 27.3879 13.3439 27.4258 13.5965C27.4194 13.7671 27.4258 13.9439 27.4321 14.1208Z" fill="#242647"/>
<path d="M23.8305 17.8917C24.14 17.159 23.1608 16.6727 22.6743 17.2285C22.3331 17.6138 22.0741 17.9738 21.6066 18.2265C21.1454 18.4728 20.621 18.6118 20.0966 18.6244C19.528 18.637 18.9594 18.517 18.4098 18.3718C18.1128 18.296 17.8222 18.1823 17.5506 18.0496C17.2599 17.9107 17.0009 17.7591 16.6724 17.7591C16.546 17.7591 16.407 17.8538 16.4386 17.9991C16.5903 18.6939 17.4179 19.136 17.9928 19.4582C18.6878 19.8498 19.5028 20.0014 20.2988 19.9698C20.9685 19.9445 21.6508 19.7613 22.2384 19.4392C22.8638 19.0855 23.5399 18.5739 23.8305 17.8917Z" fill="#242647"/>
</svg>
